<?xml version="1.0" standalone="no"?>
<!DOCTYPE svg PUBLIC "-//W3C//DTD SVG 20010904//EN"
 "http://www.w3.org/TR/2001/REC-SVG-20010904/DTD/svg10.dtd">
<svg version="1.0" xmlns="http://www.w3.org/2000/svg"
 width="512.000000pt" height="512.000000pt" viewBox="0 0 512.000000 512.000000"
 preserveAspectRatio="xMidYMid meet">

<g transform="translate(0.000000,512.000000) scale(0.100000,-0.100000)"
fill="#000000" stroke="none">
<path d="M20 4575 l0 -445 550 0 550 0 0 445 0 445 -550 0 -550 0 0 -445z
m851 225 c43 -23 23 -50 -178 -252 -129 -129 -205 -198 -218 -198 -12 0 -65
39 -124 92 -86 77 -102 95 -99 117 2 20 9 27 31 29 22 3 43 -10 108 -69 l80
-73 182 182 c101 100 187 182 191 182 4 0 16 -5 27 -10z"/>
<path d="M1200 4575 l0 -445 1620 0 1620 0 0 445 0 445 -1620 0 -1620 0 0
-445z"/>
<path d="M27 3673 c-4 -3 -7 -204 -7 -445 l0 -438 550 0 550 0 0 445 0 445
-543 0 c-299 0 -547 -3 -550 -7z m861 -248 c3 -27 -17 -49 -196 -227 -109
-109 -206 -198 -215 -198 -23 0 -214 170 -223 198 -7 25 10 52 35 52 9 0 54
-34 101 -75 l85 -75 180 180 c148 149 184 180 205 178 20 -2 26 -9 28 -33z"/>
<path d="M1200 3235 l0 -445 1620 0 1620 0 -2 443 -3 442 -1617 3 -1618 2 0
-445z"/>
<path d="M682 1888 l3 -443 548 -3 547 -2 0 445 0 445 -550 0 -550 0 2 -442z
m856 220 c7 -7 12 -21 12 -32 0 -27 -387 -416 -413 -416 -11 0 -66 41 -123 92
-75 66 -104 98 -104 114 0 20 25 44 45 44 3 0 44 -34 91 -76 l86 -77 182 182
c100 99 189 181 197 181 8 0 20 -5 27 -12z"/>
<path d="M1860 1885 l0 -445 1618 2 1617 3 3 443 2 442 -1620 0 -1620 0 0
-445z"/>
<path d="M20 545 l0 -445 550 0 550 0 0 445 0 445 -550 0 -550 0 0 -445z m868
195 c2 -21 -32 -60 -201 -229 -191 -190 -206 -202 -227 -191 -12 6 -65 50
-117 97 -79 72 -94 90 -91 112 2 19 9 27 29 29 19 2 44 -14 110 -72 l84 -75
180 180 c148 148 184 179 205 177 18 -2 26 -10 28 -28z"/>
<path d="M1200 545 l0 -445 1620 0 1620 0 0 445 0 445 -1620 0 -1620 0 0 -445z"/>
</g>
</svg>
