<?xml version="1.0" standalone="no"?>
<!DOCTYPE svg PUBLIC "-//W3C//DTD SVG 20010904//EN"
 "http://www.w3.org/TR/2001/REC-SVG-20010904/DTD/svg10.dtd">
<svg version="1.0" xmlns="http://www.w3.org/2000/svg"
 width="512.000000pt" height="512.000000pt" viewBox="0 0 512.000000 512.000000"
 preserveAspectRatio="xMidYMid meet">

<g transform="translate(0.000000,512.000000) scale(0.100000,-0.100000)"
fill="#000000" stroke="none">
<path d="M78 5100 c-43 -23 -78 -82 -78 -130 0 -50 35 -107 80 -130 39 -20 54
-20 584 -18 532 3 545 3 572 24 50 37 68 70 68 124 0 54 -18 87 -68 124 -27
21 -39 21 -574 23 -529 2 -548 2 -584 -17z"/>
<path d="M1990 5102 c-107 -53 -107 -211 0 -264 32 -16 81 -18 570 -18 596 0
580 -2 627 69 48 71 20 175 -57 213 -32 16 -81 18 -570 18 -489 0 -538 -2
-570 -18z"/>
<path d="M3910 5109 c-127 -51 -125 -230 3 -278 19 -7 208 -11 558 -11 511 0
531 1 569 20 45 23 80 80 80 130 0 50 -35 107 -80 130 -38 19 -57 20 -572 19
-328 0 -543 -4 -558 -10z"/>
<path d="M78 4500 c-23 -13 -46 -36 -58 -60 -20 -39 -20 -54 -18 -584 3 -532
3 -545 24 -572 11 -15 33 -37 48 -48 26 -20 42 -21 376 -24 236 -2 363 1 392
8 37 10 72 41 245 213 172 173 203 208 213 245 7 29 10 156 8 392 -3 334 -4
350 -24 376 -11 15 -33 37 -48 48 -27 21 -39 21 -574 23 -529 2 -548 2 -584
-17z"/>
<path d="M1990 4502 c-19 -9 -45 -32 -57 -51 l-23 -34 0 -544 c0 -608 -2 -592
69 -635 35 -23 42 -23 383 -26 240 -2 361 1 390 9 36 9 73 41 235 202 106 104
199 205 208 223 13 27 15 89 15 402 0 367 0 369 -23 403 -47 71 -31 69 -627
69 -489 0 -538 -2 -570 -18z"/>
<path d="M3905 4506 c-40 -18 -73 -56 -85 -97 -6 -20 -10 -244 -10 -549 0
-515 0 -516 23 -560 16 -33 34 -51 67 -67 43 -23 51 -23 385 -23 190 0 355 4
375 10 26 7 86 61 237 212 111 112 207 216 213 231 6 18 10 160 10 383 0 336
-1 357 -20 394 -13 26 -34 47 -60 60 -38 19 -57 20 -572 20 -422 -1 -539 -4
-563 -14z"/>
<path d="M69 2887 c-71 -47 -69 -31 -69 -627 0 -596 -2 -580 69 -627 34 -23
36 -23 403 -23 313 0 375 2 402 15 18 9 119 102 223 208 161 162 193 199 202
235 8 29 11 150 9 390 -3 341 -3 348 -26 383 -43 71 -27 69 -635 69 l-544 0
-34 -23z"/>
<path d="M3890 2891 c-20 -10 -44 -36 -57 -61 l-23 -43 0 -527 0 -527 23 -43
c42 -80 41 -80 460 -80 300 0 373 3 395 14 41 22 410 397 422 429 6 18 10 161
10 385 0 398 -1 404 -69 449 l-34 23 -546 0 c-513 0 -548 -1 -581 -19z"/>
<path d="M106 1300 c-16 -5 -40 -19 -54 -32 -52 -48 -52 -47 -52 -618 0 -501
1 -533 19 -568 11 -22 35 -46 59 -60 39 -22 45 -22 395 -22 223 0 366 4 384
10 15 6 119 102 231 213 151 151 205 211 212 237 6 20 10 185 10 375 0 334 0
342 -23 385 -16 33 -34 51 -67 68 l-44 22 -521 -1 c-286 0 -533 -5 -549 -9z"/>
</g>
</svg>
