<?xml version="1.0" standalone="no"?>
<!DOCTYPE svg PUBLIC "-//W3C//DTD SVG 20010904//EN"
 "http://www.w3.org/TR/2001/REC-SVG-20010904/DTD/svg10.dtd">
<svg version="1.0" xmlns="http://www.w3.org/2000/svg"
 width="512.000000pt" height="512.000000pt" viewBox="0 0 512.000000 512.000000"
 preserveAspectRatio="xMidYMid meet">

<g transform="translate(0.000000,512.000000) scale(0.100000,-0.100000)"
fill="#000000" stroke="none">
<path d="M2075 4474 c-627 -69 -1158 -443 -1427 -1004 -97 -202 -168 -499
-168 -702 l0 -47 -118 -3 -119 -3 194 -310 c106 -170 198 -310 203 -310 5 0
97 140 203 310 l194 310 -120 3 -120 3 7 94 c25 354 168 668 421 920 417 418
1031 539 1572 311 242 -102 460 -276 605 -481 27 -38 53 -76 58 -84 6 -11 37
4 144 69 75 45 136 85 136 87 0 10 -83 129 -136 193 -265 327 -649 552 -1069
626 -87 15 -379 26 -460 18z"/>
<path d="M1520 3600 l0 -160 -80 0 -80 0 0 -160 0 -160 880 0 880 0 0 160 0
160 -80 0 -80 0 0 160 0 160 -80 0 -80 0 0 -160 0 -160 -80 0 -80 0 0 160 0
160 -80 0 -80 0 0 -160 0 -160 -80 0 -80 0 0 160 0 160 -80 0 -80 0 0 -160 0
-160 -80 0 -80 0 0 160 0 160 -80 0 -80 0 0 -160 0 -160 -80 0 -80 0 0 160 0
160 -80 0 -80 0 0 -160z m160 -240 l0 -80 -80 0 -80 0 0 80 0 80 80 0 80 0 0
-80z m320 0 l0 -80 -80 0 -80 0 0 80 0 80 80 0 80 0 0 -80z m320 0 l0 -80 -80
0 -80 0 0 80 0 80 80 0 80 0 0 -80z m320 0 l0 -80 -80 0 -80 0 0 80 0 80 80 0
80 0 0 -80z m320 0 l0 -80 -80 0 -80 0 0 80 0 80 80 0 80 0 0 -80z"/>
<path d="M3638 3038 l-195 -313 120 -3 120 -3 -7 -97 c-25 -352 -169 -666
-421 -917 -204 -205 -428 -327 -728 -397 -91 -22 -105 -22 -1269 -25 l-1178
-4 0 -159 0 -160 2080 0 2079 0 3 -118 3 -119 310 194 c171 106 310 198 310
203 0 5 -139 97 -310 203 l-310 194 -3 -119 -3 -118 -491 0 c-271 0 -488 4
-483 8 6 4 43 34 83 66 182 146 360 369 468 587 110 219 184 514 184 731 l0
47 118 3 119 3 -194 310 c-106 171 -197 311 -201 313 -5 1 -96 -138 -204 -310z"/>
<path d="M1360 2425 l0 -536 25 -24 24 -25 831 0 831 0 24 25 25 24 0 536 0
535 -880 0 -880 0 0 -535z m320 295 l0 -80 -80 0 -80 0 0 80 0 80 80 0 80 0 0
-80z m320 0 l0 -80 -80 0 -80 0 0 80 0 80 80 0 80 0 0 -80z m320 0 l0 -80 -80
0 -80 0 0 80 0 80 80 0 80 0 0 -80z m320 0 l0 -80 -80 0 -80 0 0 80 0 80 80 0
80 0 0 -80z m320 0 l0 -80 -80 0 -80 0 0 80 0 80 80 0 80 0 0 -80z m-1280
-320 l0 -80 -80 0 -80 0 0 80 0 80 80 0 80 0 0 -80z m320 0 l0 -80 -80 0 -80
0 0 80 0 80 80 0 80 0 0 -80z m320 0 l0 -80 -80 0 -80 0 0 80 0 80 80 0 80 0
0 -80z m320 0 l0 -80 -80 0 -80 0 0 80 0 80 80 0 80 0 0 -80z m320 0 l0 -80
-80 0 -80 0 0 80 0 80 80 0 80 0 0 -80z m-1280 -320 l0 -80 -80 0 -80 0 0 80
0 80 80 0 80 0 0 -80z m320 0 l0 -80 -80 0 -80 0 0 80 0 80 80 0 80 0 0 -80z
m320 0 l0 -80 -80 0 -80 0 0 80 0 80 80 0 80 0 0 -80z m320 0 l0 -80 -80 0
-80 0 0 80 0 80 80 0 80 0 0 -80z m320 0 l0 -80 -80 0 -80 0 0 80 0 80 80 0
80 0 0 -80z"/>
</g>
</svg>
